<svg xmlns="http://www.w3.org/2000/svg" width="250.001" height="45.768" viewBox="0 0 250.001 45.768">
  <g id="Grupo_84" data-name="Grupo 84" transform="translate(-468 -65)">
    <g id="Grupo_83" data-name="Grupo 83">
      <g id="Grupo_81" data-name="Grupo 81">
        <path id="Caminho_313" data-name="Caminho 313" d="M687.332,80.274a4.743,4.743,0,0,1,1.092-3.316,3.9,3.9,0,0,1,3.04-1.2,3.965,3.965,0,0,1,1.9.4,2.85,2.85,0,0,1,1.083.947c.14.223.14.388-.005.49l-.452.316c-.15.107-.3.044-.446-.189a3,3,0,0,0-.685-.646,2.2,2.2,0,0,0-1.335-.374,2.649,2.649,0,0,0-2.219.942,4.181,4.181,0,0,0-.738,2.631,4.238,4.238,0,0,0,.719,2.632,2.708,2.708,0,0,0,2.3.942,4.441,4.441,0,0,0,1.369-.189,1.539,1.539,0,0,0,.821-.529v-1.6h-1.8c-.223,0-.33-.092-.33-.272v-.447c0-.18.112-.272.33-.272H694.6c.223,0,.33.092.33.272v2.855a6.864,6.864,0,0,1-1.476.835,5.226,5.226,0,0,1-1.932.3,4,4,0,0,1-3.1-1.2,4.724,4.724,0,0,1-1.1-3.316Z" fill="#065677"/>
        <path id="Caminho_314" data-name="Caminho 314" d="M696.293,84.61a.238.238,0,0,1-.267-.272v-5.8a.242.242,0,0,1,.272-.272h.51a.242.242,0,0,1,.272.272v.723a2.3,2.3,0,0,1,.689-.821,1.692,1.692,0,0,1,.991-.277,1.57,1.57,0,0,1,.548.068.136.136,0,0,1,.1.18l-.14.5a.114.114,0,0,1-.156.082,2.009,2.009,0,0,0-.4-.044,1.406,1.406,0,0,0-1.175.636,2.928,2.928,0,0,0-.461,1.738v3.015a.238.238,0,0,1-.267.272h-.515Z" fill="#065677"/>
        <path id="Caminho_315" data-name="Caminho 315" d="M699.878,82.394V78.529a.242.242,0,0,1,.272-.272h.519a.242.242,0,0,1,.272.272V82.1q0,1.187.393,1.5a1.517,1.517,0,0,0,.971.315,1.48,1.48,0,0,0,1.175-.466,2.459,2.459,0,0,0,.408-1.607V78.524a.238.238,0,0,1,.267-.272h.515a.238.238,0,0,1,.267.272v5.8a.242.242,0,0,1-.272.272h-.51a.242.242,0,0,1-.272-.272v-.486a2.43,2.43,0,0,1-1.976.859,1.855,1.855,0,0,1-1.548-.621,2.661,2.661,0,0,1-.491-1.694Z" fill="#065677"/>
        <path id="Caminho_316" data-name="Caminho 316" d="M706.415,87.03c-.17,0-.258-.092-.258-.272v-8.22a.242.242,0,0,1,.272-.272h.51c.146,0,.218.092.218.272v.486a2.583,2.583,0,0,1,.763-.626,2.349,2.349,0,0,1,1.131-.228,2.073,2.073,0,0,1,1.864.99,4.429,4.429,0,0,1,0,4.574,2.083,2.083,0,0,1-1.864.99,2.422,2.422,0,0,1-1.131-.228,2.814,2.814,0,0,1-.763-.626h-.009c.009.121.009.243.009.369v2.534c0,.18-.087.272-.257.272h-.485Zm.742-4.9a1.831,1.831,0,0,0,.442,1.35,1.5,1.5,0,0,0,1.107.447,1.4,1.4,0,0,0,1.33-.689,4.314,4.314,0,0,0,0-3.6,1.4,1.4,0,0,0-1.33-.689,1.49,1.49,0,0,0-1.107.447,1.838,1.838,0,0,0-.442,1.35v1.389Z" fill="#065677"/>
        <path id="Caminho_317" data-name="Caminho 317" d="M712.088,81.432a3.627,3.627,0,0,1,.752-2.35,3.084,3.084,0,0,1,4.409,0,4.048,4.048,0,0,1,0,4.7,3.084,3.084,0,0,1-4.409,0A3.618,3.618,0,0,1,712.088,81.432Zm1.126,0a2.925,2.925,0,0,0,.5,1.879,1.753,1.753,0,0,0,2.661,0,3.78,3.78,0,0,0,0-3.758,1.753,1.753,0,0,0-2.661,0A2.926,2.926,0,0,0,713.214,81.432Z" fill="#065677"/>
      </g>
      <g id="Grupo_82" data-name="Grupo 82">
        <path id="Caminho_318" data-name="Caminho 318" d="M688.408,99.3c-.335,0-.5-.18-.5-.534V89.585c0-.359.165-.534.5-.534H689.5c.335,0,.5.179.5.534v9.176c0,.359-.165.534-.5.534Z" fill="#065677"/>
        <path id="Caminho_319" data-name="Caminho 319" d="M691.4,94.166a5.8,5.8,0,0,1,1.253-3.918,4.512,4.512,0,0,1,3.607-1.452,5.638,5.638,0,0,1,2.3.422,2.558,2.558,0,0,1,1.33,1.224q.255.532-.087.714l-.86.456c-.3.16-.548.073-.743-.272a1.638,1.638,0,0,0-.689-.592,2.523,2.523,0,0,0-1.185-.262,2.3,2.3,0,0,0-2.1.947,6.506,6.506,0,0,0,0,5.467,2.291,2.291,0,0,0,2.1.947,2.418,2.418,0,0,0,1.36-.364,2.619,2.619,0,0,0,.767-.694c.233-.359.48-.447.743-.272l.859.573q.349.233.073.714a3.312,3.312,0,0,1-1.423,1.223,5.382,5.382,0,0,1-2.452.51,4.52,4.52,0,0,1-3.592-1.452,5.743,5.743,0,0,1-1.268-3.918Z" fill="#065677"/>
        <path id="Caminho_320" data-name="Caminho 320" d="M701.364,90.874c-.369,0-.558-.155-.558-.466v-.9q0-.466.553-.466h7.56q.554,0,.553.466v.9c0,.311-.184.466-.558.466H706.18V98.9c0,.262-.121.393-.359.393h-1.374c-.238,0-.359-.131-.359-.393V90.874h-2.724Z" fill="#065677"/>
        <path id="Caminho_321" data-name="Caminho 321" d="M710.4,98.529c-.3-.223-.369-.452-.214-.68l.549-.83c.179-.272.446-.286.791-.044a6.712,6.712,0,0,0,1.049.573,3.2,3.2,0,0,0,1.359.3,3.953,3.953,0,0,0,.966-.117,1.218,1.218,0,0,0,.709-.442,1.288,1.288,0,0,0,.243-.777,1.353,1.353,0,0,0-.107-.563.919.919,0,0,0-.349-.4,2.8,2.8,0,0,0-.5-.262,9.672,9.672,0,0,0-1.132-.388,12.274,12.274,0,0,1-1.345-.461,4.085,4.085,0,0,1-1.087-.617,2.976,2.976,0,0,1-.767-.884,2.746,2.746,0,0,1-.272-1.325,2.445,2.445,0,0,1,.641-1.7A2.9,2.9,0,0,1,712.41,89a7.354,7.354,0,0,1,1.684-.2,6.336,6.336,0,0,1,1.738.257,3.668,3.668,0,0,1,1.355.641c.3.253.374.481.223.685l-.577.777c-.2.267-.457.287-.787.063a7.641,7.641,0,0,0-.859-.481,2.6,2.6,0,0,0-1.141-.262,3.879,3.879,0,0,0-.777.073,1.182,1.182,0,0,0-.626.345.918.918,0,0,0-.272.67.941.941,0,0,0,.2.626,1.378,1.378,0,0,0,.442.359,3.059,3.059,0,0,0,.495.194c.514.165.976.316,1.379.442a11.021,11.021,0,0,1,1.121.418,4.7,4.7,0,0,1,1.093.641,2.434,2.434,0,0,1,.626.879,3.271,3.271,0,0,1,.248,1.33,2.587,2.587,0,0,1-.729,1.889,3.354,3.354,0,0,1-1.616.966,7.26,7.26,0,0,1-1.734.218,7.041,7.041,0,0,1-2.024-.238,4.839,4.839,0,0,1-1.481-.767Z" fill="#065677"/>
      </g>
    </g>
    <g id="Grupo_79" data-name="Grupo 79">
      <path id="Caminho_307" data-name="Caminho 307" d="M543.536,101.684h-3.5L530.45,87.8h2.764a8.136,8.136,0,0,0,5.9-2.076,6.469,6.469,0,0,0,2.027-5.226,6.621,6.621,0,0,0-1.918-4.668,6.9,6.9,0,0,0-5.161-1.955h-6.339v27.807H524.81V71h9.067a10.2,10.2,0,0,1,7.521,2.832,9.515,9.515,0,0,1,2.728,7.181,9.81,9.81,0,0,1-2.248,6.224,7.8,7.8,0,0,1-5.382,2.911l-.811.08,7.851,11.45Z" fill="#065677"/>
      <path id="Caminho_308" data-name="Caminho 308" d="M556.149,109.632h-3.3l3.458-8.337-8.766-21.207h3.336L558.2,97.452l7.719-17.364h3.217l-12.987,29.544Z" fill="#065677"/>
      <path id="Caminho_309" data-name="Caminho 309" d="M571.389,89.821V71h2.9V82.272a10.76,10.76,0,0,1,8.129-3.952,10.474,10.474,0,0,1,8.207,3.326,11.472,11.472,0,0,1,3.484,8.371,11.247,11.247,0,0,1-3.214,8.1,10.94,10.94,0,0,1-7.818,3.561,10.778,10.778,0,0,1-8.284-3.364,10.94,10.94,0,0,1-3.406-8.332v-.159Zm17.417,6.141a8.678,8.678,0,0,0,2.323-6.181,8.463,8.463,0,0,0-2.555-6.025,7.973,7.973,0,0,0-5.961-2.542,7.464,7.464,0,0,0-5.767,2.5,9.09,9.09,0,0,0,0,12.481,7.763,7.763,0,0,0,6.193,2.542,7.992,7.992,0,0,0,5.767-2.777Z" fill="#065677"/>
      <path id="Caminho_310" data-name="Caminho 310" d="M618.57,94.075a10.978,10.978,0,0,1-4.159,5.525,11.45,11.45,0,0,1-6.509,2.081,11.009,11.009,0,0,1-7.971-3.217,11.346,11.346,0,0,1,8.433-19.487,11.425,11.425,0,0,1,7.626,3.556,10.213,10.213,0,0,1,3.121,7.264v1.551H599.394a7.9,7.9,0,0,0,2.811,5.373,8.5,8.5,0,0,0,5.816,2.081,7.789,7.789,0,0,0,7.433-4.73h3.12ZM616.221,88.7a8.7,8.7,0,0,0-13.862-4.957,8.209,8.209,0,0,0-2.965,4.957h16.827Z" fill="#065677"/>
      <path id="Caminho_311" data-name="Caminho 311" d="M640.705,101.681h-2.944V88.7a6.665,6.665,0,0,0-2.027-4.833,6.294,6.294,0,0,0-4.667-2.028,6.432,6.432,0,0,0-4.742,2.028,6.633,6.633,0,0,0-1.99,4.833v12.982h-2.944V89.012a9.913,9.913,0,0,1,2.754-7.172,9.7,9.7,0,0,1,13.808,0,9.914,9.914,0,0,1,2.755,7.172v12.669Z" fill="#065677"/>
      <path id="Caminho_312" data-name="Caminho 312" d="M666.852,101.181h-2.868V97.794a10.871,10.871,0,0,1-8.839,3.88,11.41,11.41,0,0,1-11.007-11.337,11.22,11.22,0,0,1,3.451-8.139,10.679,10.679,0,0,1,8.256-3.234,11.162,11.162,0,0,1,7.909,3.5,10.232,10.232,0,0,1,3.1,7.837v10.879Zm-19.731-11.07a8.316,8.316,0,0,0,2.287,6.011,8.167,8.167,0,0,0,5.775,2.7,7.8,7.8,0,0,0,6.2-2.472,8.452,8.452,0,0,0,2.519-6.278,8.351,8.351,0,0,0-2.481-5.858,7.758,7.758,0,0,0-5.775-2.435,8.213,8.213,0,0,0-6.008,2.435,8.089,8.089,0,0,0-2.519,5.9Z" fill="#065677"/>
      <path id="Caminho_322" data-name="Caminho 322" d="M658.523,77.819h-3.031l3.788-5.682h3.03Z" fill="#065677"/>
    </g>
    <rect id="Retângulo_94" data-name="Retângulo 94" width="2.273" height="45.452" transform="translate(675.928 65.316)" fill="#065677"/>
    <g id="Grupo_78" data-name="Grupo 78">
      <path id="Caminho_323" data-name="Caminho 323" d="M469.119,108.7c-.11-.237-.215-.477-.333-.712a5.223,5.223,0,0,1,1.421-6.458,4.954,4.954,0,0,1,6.625.481,5.222,5.222,0,0,1,.418,6.714,4.98,4.98,0,0,1-6.327,1.447c-.23-.12-.463-.229-.7-.342l-1.107-1.13Z" fill="#0178a9"/>
      <path id="Caminho_324" data-name="Caminho 324" d="M469.716,66.351c.187-.1.385-.189.56-.308a4.929,4.929,0,0,1,6.646,1.077,5.42,5.42,0,0,1-.375,7.05,4.883,4.883,0,0,1-6.711.333,5.419,5.419,0,0,1-.984-6.99,4.935,4.935,0,0,0,.252-.526l.612-.638Z" fill="#2b728f"/>
      <path id="Caminho_325" data-name="Caminho 325" d="M480.5,106.048c-1.256-5.657-2.708-7.05-7.96-7.623a15.644,15.644,0,0,1,1.67-10.624c1.947-3.3,5.028-5,8.726-5.909-2.515,9.041-1.278,17.064,6.238,23.635-2.987.178-5.81.349-8.674.52Z" fill="#0178a9"/>
      <path id="Caminho_326" data-name="Caminho 326" d="M484.888,95.871c8.953,2.471,16.831,1.174,23.254-6.291.16,2.887.316,5.7.474,8.564-.269.048-.474.092-.68.121-4.063.549-6.432,3.081-6.792,7.295-.035.42-.108.675-.587.735-3.683.458-7.214.084-10.4-2.074-2.9-1.964-4.42-4.878-5.274-8.35Z" fill="#3095bf"/>
      <path id="Caminho_327" data-name="Caminho 327" d="M496.659,80.034c-9.178-2.409-17.27-1.15-23.881,6.133-.164-2.812-.324-5.55-.488-8.355.29-.045.522-.086.755-.118,4.12-.539,6.561-3.031,6.921-7.087.035-.395.077-.67.584-.729,3.783-.449,7.4-.09,10.679,2.01C494.213,73.8,495.778,76.636,496.659,80.034Z" fill="#2b728f"/>
      <path id="Caminho_328" data-name="Caminho 328" d="M504.531,108.89a4.84,4.84,0,0,1,.015-6.98,5.1,5.1,0,0,1,7.083.011,4.9,4.9,0,0,1,0,7,5.163,5.163,0,0,1-7.1-.029Z" fill="#3095bf"/>
      <path id="Caminho_329" data-name="Caminho 329" d="M511.564,66.716c.1.187.181.385.3.56a5.045,5.045,0,1,1-1.41-1.425,4.552,4.552,0,0,0,.505.252l.612.613Z" fill="#065677"/>
      <path id="Caminho_330" data-name="Caminho 330" d="M498.422,93.645c2.377-9.179,1.135-17.271-6.054-23.881l8.247-.488c.044.29.085.522.116.755.532,4.12,2.992,6.561,7,6.921.39.034.661.076.72.583.443,3.783.089,7.4-1.984,10.679a12.721,12.721,0,0,1-8.04,5.43Z" fill="#065677"/>
    </g>
  </g>
</svg>
